<svg xmlns="http://www.w3.org/2000/svg" xmlns:xlink="http://www.w3.org/1999/xlink" width="300" zoomAndPan="magnify" viewBox="0 0 224.87999 52.499999" height="70" preserveAspectRatio="xMidYMid meet" version="1.0"><defs><g/><clipPath id="a8d7a87905"><path d="M 174.109375 2.199219 L 217.199219 2.199219 L 217.199219 25.972656 L 174.109375 25.972656 Z M 174.109375 2.199219 " clip-rule="nonzero"/></clipPath><clipPath id="4bf8ae5ae1"><path d="M 189 17 L 202 17 L 202 25.972656 L 189 25.972656 Z M 189 17 " clip-rule="nonzero"/></clipPath></defs><g fill="#4f46e5" fill-opacity="1"><g transform="translate(1.001319, 42.341897)"><g><path d="M 1.703125 -26.34375 L 13.296875 -26.34375 C 16.367188 -26.34375 18.820312 -25.535156 20.65625 -23.921875 C 22.488281 -22.316406 23.40625 -20.070312 23.40625 -17.1875 C 23.40625 -14.21875 22.492188 -11.921875 20.671875 -10.296875 C 18.847656 -8.679688 16.390625 -7.875 13.296875 -7.875 L 8.359375 -7.875 L 8.359375 0 L 1.703125 0 Z M 12.25 -13.484375 C 13.582031 -13.484375 14.628906 -13.757812 15.390625 -14.3125 C 16.160156 -14.875 16.546875 -15.832031 16.546875 -17.1875 C 16.546875 -18.539062 16.164062 -19.46875 15.40625 -19.96875 C 14.65625 -20.476562 13.601562 -20.734375 12.25 -20.734375 L 8.359375 -20.734375 L 8.359375 -13.484375 Z M 12.25 -13.484375 "/></g></g></g><g fill="#4f46e5" fill-opacity="1"><g transform="translate(24.966195, 42.341897)"><g><path d="M 1.703125 -18.09375 L 8.109375 -18.09375 L 8.109375 -15.828125 C 8.804688 -16.628906 9.796875 -17.25 11.078125 -17.6875 C 12.359375 -18.132812 13.78125 -18.359375 15.34375 -18.359375 L 15.34375 -13.265625 C 13.675781 -13.265625 12.207031 -13.023438 10.9375 -12.546875 C 9.675781 -12.066406 8.804688 -11.351562 8.328125 -10.40625 L 8.328125 0 L 1.703125 0 Z M 1.703125 -18.09375 "/></g></g></g><g fill="#4f46e5" fill-opacity="1"><g transform="translate(40.490613, 42.341897)"><g><path d="M 12.09375 0.5625 C 9.863281 0.5625 7.90625 0.15625 6.21875 -0.65625 C 4.53125 -1.476562 3.226562 -2.609375 2.3125 -4.046875 C 1.394531 -5.492188 0.9375 -7.160156 0.9375 -9.046875 C 0.9375 -10.929688 1.394531 -12.59375 2.3125 -14.03125 C 3.226562 -15.476562 4.53125 -16.609375 6.21875 -17.421875 C 7.90625 -18.242188 9.863281 -18.65625 12.09375 -18.65625 C 14.332031 -18.65625 16.289062 -18.242188 17.96875 -17.421875 C 19.65625 -16.609375 20.957031 -15.476562 21.875 -14.03125 C 22.789062 -12.59375 23.25 -10.929688 23.25 -9.046875 C 23.25 -7.160156 22.789062 -5.492188 21.875 -4.046875 C 20.957031 -2.609375 19.65625 -1.476562 17.96875 -0.65625 C 16.289062 0.15625 14.332031 0.5625 12.09375 0.5625 Z M 12.09375 -4.59375 C 13.425781 -4.59375 14.488281 -4.988281 15.28125 -5.78125 C 16.070312 -6.570312 16.46875 -7.660156 16.46875 -9.046875 C 16.46875 -10.429688 16.070312 -11.515625 15.28125 -12.296875 C 14.488281 -13.085938 13.425781 -13.484375 12.09375 -13.484375 C 10.757812 -13.484375 9.695312 -13.085938 8.90625 -12.296875 C 8.113281 -11.515625 7.71875 -10.429688 7.71875 -9.046875 C 7.71875 -7.660156 8.113281 -6.570312 8.90625 -5.78125 C 9.695312 -4.988281 10.757812 -4.59375 12.09375 -4.59375 Z M 12.09375 -4.59375 "/></g></g></g><g fill="#4f46e5" fill-opacity="1"><g transform="translate(64.681579, 42.341897)"><g><path d="M 1.703125 -18.09375 L 8.109375 -18.09375 L 8.109375 -16.28125 C 9.785156 -17.863281 11.921875 -18.65625 14.515625 -18.65625 C 16.398438 -18.65625 18.066406 -18.257812 19.515625 -17.46875 C 20.972656 -16.675781 22.101562 -15.554688 22.90625 -14.109375 C 23.71875 -12.671875 24.125 -10.992188 24.125 -9.078125 C 24.125 -7.191406 23.71875 -5.515625 22.90625 -4.046875 C 22.101562 -2.578125 20.976562 -1.441406 19.53125 -0.640625 C 18.09375 0.160156 16.421875 0.5625 14.515625 0.5625 C 13.304688 0.5625 12.15625 0.378906 11.0625 0.015625 C 9.96875 -0.347656 9.054688 -0.84375 8.328125 -1.46875 L 8.328125 8.25 L 1.703125 8.25 Z M 12.78125 -4.59375 C 14.132812 -4.59375 15.222656 -4.992188 16.046875 -5.796875 C 16.878906 -6.609375 17.296875 -7.703125 17.296875 -9.078125 C 17.296875 -10.460938 16.878906 -11.550781 16.046875 -12.34375 C 15.222656 -13.132812 14.132812 -13.53125 12.78125 -13.53125 C 11.769531 -13.53125 10.863281 -13.269531 10.0625 -12.75 C 9.257812 -12.238281 8.679688 -11.546875 8.328125 -10.671875 L 8.328125 -7.46875 C 8.679688 -6.582031 9.257812 -5.878906 10.0625 -5.359375 C 10.863281 -4.847656 11.769531 -4.59375 12.78125 -4.59375 Z M 12.78125 -4.59375 "/></g></g></g><g fill="#4f46e5" fill-opacity="1"><g transform="translate(89.739192, 42.341897)"><g><path d="M 1.703125 -26.34375 L 8.359375 -26.34375 L 8.359375 -15.421875 L 17.453125 -26.34375 L 25.359375 -26.34375 L 14.703125 -13.53125 L 26.078125 0 L 18.171875 0 L 8.359375 -11.640625 L 8.359375 0 L 1.703125 0 Z M 1.703125 -26.34375 "/></g></g></g><g fill="#4f46e5" fill-opacity="1"><g transform="translate(116.756202, 42.341897)"><g><path d="M 8.96875 0.5625 C 6.476562 0.5625 4.609375 -0.125 3.359375 -1.5 C 2.117188 -2.882812 1.5 -4.707031 1.5 -6.96875 L 1.5 -18.09375 L 8.140625 -18.09375 L 8.140625 -7.71875 C 8.140625 -5.632812 9.082031 -4.59375 10.96875 -4.59375 C 11.820312 -4.59375 12.597656 -4.789062 13.296875 -5.1875 C 14.003906 -5.59375 14.582031 -6.1875 15.03125 -6.96875 L 15.03125 -18.09375 L 21.671875 -18.09375 L 21.671875 0 L 15.265625 0 L 15.265625 -1.953125 C 14.484375 -1.128906 13.539062 -0.503906 12.4375 -0.078125 C 11.332031 0.347656 10.175781 0.5625 8.96875 0.5625 Z M 8.96875 0.5625 "/></g></g></g><g fill="#4f46e5" fill-opacity="1"><g transform="translate(140.118181, 42.341897)"><g><path d="M 14.515625 0.5625 C 11.921875 0.5625 9.785156 -0.226562 8.109375 -1.8125 L 8.109375 0 L 1.703125 0 L 1.703125 -27.84375 L 8.328125 -27.84375 L 8.328125 -16.625 C 9.054688 -17.25 9.96875 -17.742188 11.0625 -18.109375 C 12.15625 -18.472656 13.304688 -18.65625 14.515625 -18.65625 C 16.421875 -18.65625 18.09375 -18.253906 19.53125 -17.453125 C 20.976562 -16.648438 22.101562 -15.507812 22.90625 -14.03125 C 23.71875 -12.5625 24.125 -10.882812 24.125 -9 C 24.125 -7.09375 23.71875 -5.414062 22.90625 -3.96875 C 22.101562 -2.53125 20.972656 -1.414062 19.515625 -0.625 C 18.066406 0.164062 16.398438 0.5625 14.515625 0.5625 Z M 12.78125 -4.5625 C 14.132812 -4.5625 15.222656 -4.957031 16.046875 -5.75 C 16.878906 -6.539062 17.296875 -7.625 17.296875 -9 C 17.296875 -10.382812 16.878906 -11.476562 16.046875 -12.28125 C 15.222656 -13.082031 14.132812 -13.484375 12.78125 -13.484375 C 11.769531 -13.484375 10.863281 -13.226562 10.0625 -12.71875 C 9.257812 -12.207031 8.679688 -11.507812 8.328125 -10.625 L 8.328125 -7.421875 C 8.679688 -6.546875 9.257812 -5.847656 10.0625 -5.328125 C 10.863281 -4.816406 11.769531 -4.5625 12.78125 -4.5625 Z M 12.78125 -4.5625 "/></g></g></g><g fill="#f97316" fill-opacity="1"><g transform="translate(165.172625, 41.964087)"><g><path d="M 2.234375 0 C 1.796875 0 1.421875 -0.148438 1.109375 -0.453125 C 0.796875 -0.765625 0.640625 -1.140625 0.640625 -1.578125 C 0.640625 -2.035156 0.796875 -2.425781 1.109375 -2.75 C 1.421875 -3.070312 1.796875 -3.234375 2.234375 -3.234375 C 2.691406 -3.234375 3.078125 -3.070312 3.390625 -2.75 C 3.703125 -2.425781 3.859375 -2.035156 3.859375 -1.578125 C 3.859375 -1.140625 3.703125 -0.765625 3.390625 -0.453125 C 3.078125 -0.148438 2.691406 0 2.234375 0 Z M 2.234375 0 "/></g></g></g><g fill="#f97316" fill-opacity="1"><g transform="translate(169.667229, 41.964087)"><g><path d="M 7.90625 0.375 C 5.664062 0.375 3.894531 -0.179688 2.59375 -1.296875 C 1.289062 -2.410156 0.640625 -4.003906 0.640625 -6.078125 C 0.640625 -8.140625 1.296875 -9.738281 2.609375 -10.875 C 3.921875 -12.007812 5.691406 -12.578125 7.921875 -12.578125 C 8.921875 -12.578125 9.859375 -12.476562 10.734375 -12.28125 C 11.609375 -12.082031 12.332031 -11.804688 12.90625 -11.453125 L 12.90625 -7.984375 C 11.875 -8.722656 10.507812 -9.09375 8.8125 -9.09375 C 7.726562 -9.09375 6.859375 -8.84375 6.203125 -8.34375 C 5.554688 -7.84375 5.234375 -7.085938 5.234375 -6.078125 C 5.234375 -5.035156 5.554688 -4.273438 6.203125 -3.796875 C 6.847656 -3.316406 7.710938 -3.078125 8.796875 -3.078125 C 10.429688 -3.078125 11.851562 -3.46875 13.0625 -4.25 L 13.0625 -0.78125 C 11.769531 -0.0078125 10.050781 0.375 7.90625 0.375 Z M 7.90625 0.375 "/></g></g></g><g fill="#f97316" fill-opacity="1"><g transform="translate(183.354216, 41.964087)"><g><path d="M 8.15625 0.375 C 6.644531 0.375 5.320312 0.101562 4.1875 -0.4375 C 3.050781 -0.988281 2.175781 -1.75 1.5625 -2.71875 C 0.945312 -3.695312 0.640625 -4.820312 0.640625 -6.09375 C 0.640625 -7.363281 0.945312 -8.484375 1.5625 -9.453125 C 2.175781 -10.429688 3.050781 -11.195312 4.1875 -11.75 C 5.320312 -12.300781 6.644531 -12.578125 8.15625 -12.578125 C 9.664062 -12.578125 10.988281 -12.300781 12.125 -11.75 C 13.257812 -11.195312 14.132812 -10.429688 14.75 -9.453125 C 15.363281 -8.484375 15.671875 -7.363281 15.671875 -6.09375 C 15.671875 -4.820312 15.363281 -3.695312 14.75 -2.71875 C 14.132812 -1.75 13.257812 -0.988281 12.125 -0.4375 C 10.988281 0.101562 9.664062 0.375 8.15625 0.375 Z M 8.15625 -3.09375 C 9.050781 -3.09375 9.765625 -3.359375 10.296875 -3.890625 C 10.835938 -4.429688 11.109375 -5.164062 11.109375 -6.09375 C 11.109375 -7.03125 10.835938 -7.765625 10.296875 -8.296875 C 9.765625 -8.828125 9.050781 -9.09375 8.15625 -9.09375 C 7.257812 -9.09375 6.539062 -8.828125 6 -8.296875 C 5.46875 -7.765625 5.203125 -7.03125 5.203125 -6.09375 C 5.203125 -5.164062 5.46875 -4.429688 6 -3.890625 C 6.539062 -3.359375 7.257812 -3.09375 8.15625 -3.09375 Z M 8.15625 -3.09375 "/></g></g></g><g fill="#f97316" fill-opacity="1"><g transform="translate(199.656705, 41.964087)"><g><path d="M 1.140625 -12.1875 L 5.28125 -12.1875 L 5.28125 -10.875 C 5.789062 -11.414062 6.375 -11.832031 7.03125 -12.125 C 7.695312 -12.425781 8.398438 -12.578125 9.140625 -12.578125 C 10.054688 -12.578125 10.789062 -12.441406 11.34375 -12.171875 C 11.894531 -11.898438 12.335938 -11.492188 12.671875 -10.953125 C 13.179688 -11.460938 13.800781 -11.859375 14.53125 -12.140625 C 15.257812 -12.429688 16 -12.578125 16.75 -12.578125 C 18.351562 -12.578125 19.492188 -12.164062 20.171875 -11.34375 C 20.847656 -10.519531 21.1875 -9.335938 21.1875 -7.796875 L 21.1875 0 L 16.921875 0 L 16.921875 -7.171875 C 16.921875 -7.847656 16.789062 -8.335938 16.53125 -8.640625 C 16.28125 -8.941406 15.859375 -9.09375 15.265625 -9.09375 C 14.503906 -9.09375 13.890625 -8.820312 13.421875 -8.28125 C 13.429688 -7.988281 13.4375 -7.550781 13.4375 -6.96875 L 13.4375 0 L 9.171875 0 L 9.171875 -7.34375 C 9.171875 -7.96875 9.0625 -8.414062 8.84375 -8.6875 C 8.625 -8.957031 8.234375 -9.09375 7.671875 -9.09375 C 6.804688 -9.09375 6.0625 -8.609375 5.4375 -7.640625 L 5.4375 0 L 1.140625 0 Z M 1.140625 -12.1875 "/></g></g></g><g clip-path="url(#a8d7a87905)"><path fill="#f97316" d="M 195.703125 2.199219 L 174.253906 24.066406 L 176.089844 25.972656 L 195.703125 5.980469 L 215.1875 25.839844 L 217.054688 23.933594 Z M 195.703125 2.199219 " fill-opacity="1" fill-rule="nonzero"/></g><g clip-path="url(#4bf8ae5ae1)"><path fill="#f97316" d="M 189.570312 25.039062 L 192.195312 25.039062 L 192.195312 20.421875 L 199.082031 20.421875 L 199.082031 25.039062 L 201.707031 25.039062 L 201.707031 17.75 L 189.570312 17.75 Z M 189.570312 25.039062 " fill-opacity="1" fill-rule="nonzero"/></g></svg>