<svg xmlns="http://www.w3.org/2000/svg" xmlns:xlink="http://www.w3.org/1999/xlink" width="360" zoomAndPan="magnify" viewBox="0 0 270 44.999999" height="60" preserveAspectRatio="xMidYMid meet" version="1.0"><defs><g/></defs><g fill="#4f46e5" fill-opacity="1"><g transform="translate(1.308496, 34.006387)"><g><path d="M 1.796875 -27.953125 L 14.125 -27.953125 C 17.375 -27.953125 19.972656 -27.097656 21.921875 -25.390625 C 23.867188 -23.691406 24.84375 -21.304688 24.84375 -18.234375 C 24.84375 -15.085938 23.875 -12.65625 21.9375 -10.9375 C 20.007812 -9.21875 17.40625 -8.359375 14.125 -8.359375 L 8.875 -8.359375 L 8.875 0 L 1.796875 0 Z M 13 -14.3125 C 14.414062 -14.3125 15.53125 -14.601562 16.34375 -15.1875 C 17.15625 -15.78125 17.5625 -16.796875 17.5625 -18.234375 C 17.5625 -19.679688 17.160156 -20.671875 16.359375 -21.203125 C 15.554688 -21.734375 14.4375 -22 13 -22 L 8.875 -22 L 8.875 -14.3125 Z M 13 -14.3125 "/></g></g></g><g fill="#4f46e5" fill-opacity="1"><g transform="translate(26.745964, 34.006387)"><g><path d="M 1.796875 -19.203125 L 8.59375 -19.203125 L 8.59375 -16.796875 C 9.34375 -17.648438 10.394531 -18.3125 11.75 -18.78125 C 13.113281 -19.25 14.625 -19.484375 16.28125 -19.484375 L 16.28125 -14.078125 C 14.519531 -14.078125 12.960938 -13.820312 11.609375 -13.3125 C 10.265625 -12.8125 9.34375 -12.054688 8.84375 -11.046875 L 8.84375 0 L 1.796875 0 Z M 1.796875 -19.203125 "/></g></g></g><g fill="#4f46e5" fill-opacity="1"><g transform="translate(43.224323, 34.006387)"><g><path d="M 12.84375 0.59375 C 10.46875 0.59375 8.382812 0.160156 6.59375 -0.703125 C 4.8125 -1.566406 3.429688 -2.765625 2.453125 -4.296875 C 1.484375 -5.828125 1 -7.59375 1 -9.59375 C 1 -11.59375 1.484375 -13.359375 2.453125 -14.890625 C 3.429688 -16.429688 4.8125 -17.632812 6.59375 -18.5 C 8.382812 -19.363281 10.46875 -19.796875 12.84375 -19.796875 C 15.21875 -19.796875 17.296875 -19.363281 19.078125 -18.5 C 20.867188 -17.632812 22.25 -16.429688 23.21875 -14.890625 C 24.195312 -13.359375 24.6875 -11.59375 24.6875 -9.59375 C 24.6875 -7.59375 24.195312 -5.828125 23.21875 -4.296875 C 22.25 -2.765625 20.867188 -1.566406 19.078125 -0.703125 C 17.296875 0.160156 15.21875 0.59375 12.84375 0.59375 Z M 12.84375 -4.875 C 14.25 -4.875 15.375 -5.296875 16.21875 -6.140625 C 17.0625 -6.984375 17.484375 -8.132812 17.484375 -9.59375 C 17.484375 -11.0625 17.0625 -12.210938 16.21875 -13.046875 C 15.375 -13.890625 14.25 -14.3125 12.84375 -14.3125 C 11.425781 -14.3125 10.296875 -13.890625 9.453125 -13.046875 C 8.617188 -12.210938 8.203125 -11.0625 8.203125 -9.59375 C 8.203125 -8.132812 8.617188 -6.984375 9.453125 -6.140625 C 10.296875 -5.296875 11.425781 -4.875 12.84375 -4.875 Z M 12.84375 -4.875 "/></g></g></g><g fill="#4f46e5" fill-opacity="1"><g transform="translate(68.901773, 34.006387)"><g><path d="M 1.796875 -19.203125 L 8.59375 -19.203125 L 8.59375 -17.28125 C 10.382812 -18.957031 12.65625 -19.796875 15.40625 -19.796875 C 17.40625 -19.796875 19.175781 -19.375 20.71875 -18.53125 C 22.269531 -17.695312 23.46875 -16.515625 24.3125 -14.984375 C 25.164062 -13.453125 25.59375 -11.671875 25.59375 -9.640625 C 25.59375 -7.640625 25.164062 -5.859375 24.3125 -4.296875 C 23.46875 -2.734375 22.273438 -1.523438 20.734375 -0.671875 C 19.203125 0.171875 17.425781 0.59375 15.40625 0.59375 C 14.125 0.59375 12.898438 0.398438 11.734375 0.015625 C 10.578125 -0.367188 9.613281 -0.894531 8.84375 -1.5625 L 8.84375 8.765625 L 1.796875 8.765625 Z M 13.5625 -4.875 C 15 -4.875 16.15625 -5.300781 17.03125 -6.15625 C 17.914062 -7.007812 18.359375 -8.171875 18.359375 -9.640625 C 18.359375 -11.109375 17.914062 -12.257812 17.03125 -13.09375 C 16.15625 -13.9375 15 -14.359375 13.5625 -14.359375 C 12.488281 -14.359375 11.523438 -14.082031 10.671875 -13.53125 C 9.828125 -12.988281 9.21875 -12.25 8.84375 -11.3125 L 8.84375 -7.921875 C 9.21875 -6.984375 9.828125 -6.238281 10.671875 -5.6875 C 11.523438 -5.144531 12.488281 -4.875 13.5625 -4.875 Z M 13.5625 -4.875 "/></g></g></g><g fill="#4f46e5" fill-opacity="1"><g transform="translate(95.499134, 34.006387)"><g><path d="M 1.796875 -27.953125 L 8.875 -27.953125 L 8.875 -16.359375 L 18.515625 -27.953125 L 26.921875 -27.953125 L 15.59375 -14.359375 L 27.6875 0 L 19.28125 0 L 8.875 -12.359375 L 8.875 0 L 1.796875 0 Z M 1.796875 -27.953125 "/></g></g></g><g fill="#4f46e5" fill-opacity="1"><g transform="translate(124.176287, 34.006387)"><g><path d="M 9.515625 0.59375 C 6.878906 0.59375 4.898438 -0.132812 3.578125 -1.59375 C 2.253906 -3.0625 1.59375 -5 1.59375 -7.40625 L 1.59375 -19.203125 L 8.640625 -19.203125 L 8.640625 -8.203125 C 8.640625 -5.984375 9.640625 -4.875 11.640625 -4.875 C 12.546875 -4.875 13.367188 -5.085938 14.109375 -5.515625 C 14.859375 -5.941406 15.472656 -6.570312 15.953125 -7.40625 L 15.953125 -19.203125 L 23 -19.203125 L 23 0 L 16.203125 0 L 16.203125 -2.078125 C 15.367188 -1.203125 14.363281 -0.535156 13.1875 -0.078125 C 12.019531 0.367188 10.796875 0.59375 9.515625 0.59375 Z M 9.515625 0.59375 "/></g></g></g><g fill="#4f46e5" fill-opacity="1"><g transform="translate(148.973824, 34.006387)"><g><path d="M 15.40625 0.59375 C 12.65625 0.59375 10.382812 -0.242188 8.59375 -1.921875 L 8.59375 0 L 1.796875 0 L 1.796875 -29.5625 L 8.84375 -29.5625 L 8.84375 -17.640625 C 9.613281 -18.304688 10.578125 -18.832031 11.734375 -19.21875 C 12.898438 -19.601562 14.125 -19.796875 15.40625 -19.796875 C 17.425781 -19.796875 19.203125 -19.367188 20.734375 -18.515625 C 22.273438 -17.660156 23.46875 -16.453125 24.3125 -14.890625 C 25.164062 -13.335938 25.59375 -11.5625 25.59375 -9.5625 C 25.59375 -7.53125 25.164062 -5.75 24.3125 -4.21875 C 23.46875 -2.6875 22.269531 -1.5 20.71875 -0.65625 C 19.175781 0.175781 17.40625 0.59375 15.40625 0.59375 Z M 13.5625 -4.84375 C 15 -4.84375 16.15625 -5.257812 17.03125 -6.09375 C 17.914062 -6.9375 18.359375 -8.09375 18.359375 -9.5625 C 18.359375 -11.03125 17.914062 -12.1875 17.03125 -13.03125 C 16.15625 -13.882812 15 -14.3125 13.5625 -14.3125 C 12.488281 -14.3125 11.523438 -14.039062 10.671875 -13.5 C 9.828125 -12.957031 9.21875 -12.21875 8.84375 -11.28125 L 8.84375 -7.875 C 9.21875 -6.945312 9.828125 -6.207031 10.671875 -5.65625 C 11.523438 -5.113281 12.488281 -4.84375 13.5625 -4.84375 Z M 13.5625 -4.84375 "/></g></g></g><g fill="#f97316" fill-opacity="1"><g transform="translate(174.444074, 34.006387)"><g><path d="M 3.515625 0 C 2.828125 0 2.234375 -0.238281 1.734375 -0.71875 C 1.242188 -1.195312 1 -1.785156 1 -2.484375 C 1 -3.203125 1.242188 -3.8125 1.734375 -4.3125 C 2.234375 -4.820312 2.828125 -5.078125 3.515625 -5.078125 C 4.234375 -5.078125 4.835938 -4.820312 5.328125 -4.3125 C 5.828125 -3.8125 6.078125 -3.203125 6.078125 -2.484375 C 6.078125 -1.785156 5.828125 -1.195312 5.328125 -0.71875 C 4.835938 -0.238281 4.234375 0 3.515625 0 Z M 3.515625 0 "/></g></g></g><g fill="#f97316" fill-opacity="1"><g transform="translate(181.523366, 34.006387)"><g><path d="M 12.4375 0.59375 C 8.914062 0.59375 6.128906 -0.285156 4.078125 -2.046875 C 2.023438 -3.804688 1 -6.3125 1 -9.5625 C 1 -12.8125 2.03125 -15.328125 4.09375 -17.109375 C 6.164062 -18.898438 8.960938 -19.796875 12.484375 -19.796875 C 14.054688 -19.796875 15.523438 -19.640625 16.890625 -19.328125 C 18.265625 -19.023438 19.40625 -18.597656 20.3125 -18.046875 L 20.3125 -12.5625 C 18.6875 -13.726562 16.539062 -14.3125 13.875 -14.3125 C 12.164062 -14.3125 10.796875 -13.914062 9.765625 -13.125 C 8.742188 -12.34375 8.234375 -11.15625 8.234375 -9.5625 C 8.234375 -7.9375 8.738281 -6.742188 9.75 -5.984375 C 10.769531 -5.222656 12.132812 -4.84375 13.84375 -4.84375 C 16.425781 -4.84375 18.664062 -5.457031 20.5625 -6.6875 L 20.5625 -1.234375 C 18.53125 -0.015625 15.820312 0.59375 12.4375 0.59375 Z M 12.4375 0.59375 "/></g></g></g><g fill="#f97316" fill-opacity="1"><g transform="translate(203.081218, 34.006387)"><g><path d="M 12.84375 0.59375 C 10.46875 0.59375 8.382812 0.160156 6.59375 -0.703125 C 4.8125 -1.566406 3.429688 -2.765625 2.453125 -4.296875 C 1.484375 -5.828125 1 -7.59375 1 -9.59375 C 1 -11.59375 1.484375 -13.359375 2.453125 -14.890625 C 3.429688 -16.429688 4.8125 -17.632812 6.59375 -18.5 C 8.382812 -19.363281 10.46875 -19.796875 12.84375 -19.796875 C 15.21875 -19.796875 17.296875 -19.363281 19.078125 -18.5 C 20.867188 -17.632812 22.25 -16.429688 23.21875 -14.890625 C 24.195312 -13.359375 24.6875 -11.59375 24.6875 -9.59375 C 24.6875 -7.59375 24.195312 -5.828125 23.21875 -4.296875 C 22.25 -2.765625 20.867188 -1.566406 19.078125 -0.703125 C 17.296875 0.160156 15.21875 0.59375 12.84375 0.59375 Z M 12.84375 -4.875 C 14.25 -4.875 15.375 -5.296875 16.21875 -6.140625 C 17.0625 -6.984375 17.484375 -8.132812 17.484375 -9.59375 C 17.484375 -11.0625 17.0625 -12.210938 16.21875 -13.046875 C 15.375 -13.890625 14.25 -14.3125 12.84375 -14.3125 C 11.425781 -14.3125 10.296875 -13.890625 9.453125 -13.046875 C 8.617188 -12.210938 8.203125 -11.0625 8.203125 -9.59375 C 8.203125 -8.132812 8.617188 -6.984375 9.453125 -6.140625 C 10.296875 -5.296875 11.425781 -4.875 12.84375 -4.875 Z M 12.84375 -4.875 "/></g></g></g><g fill="#f97316" fill-opacity="1"><g transform="translate(228.758669, 34.006387)"><g><path d="M 1.796875 -19.203125 L 8.3125 -19.203125 L 8.3125 -17.125 C 9.113281 -17.976562 10.035156 -18.632812 11.078125 -19.09375 C 12.117188 -19.5625 13.226562 -19.796875 14.40625 -19.796875 C 15.84375 -19.796875 16.992188 -19.582031 17.859375 -19.15625 C 18.722656 -18.726562 19.421875 -18.085938 19.953125 -17.234375 C 20.753906 -18.035156 21.726562 -18.660156 22.875 -19.109375 C 24.019531 -19.566406 25.179688 -19.796875 26.359375 -19.796875 C 28.890625 -19.796875 30.6875 -19.148438 31.75 -17.859375 C 32.820312 -16.566406 33.359375 -14.707031 33.359375 -12.28125 L 33.359375 0 L 26.640625 0 L 26.640625 -11.28125 C 26.640625 -12.34375 26.4375 -13.113281 26.03125 -13.59375 C 25.632812 -14.070312 24.972656 -14.3125 24.046875 -14.3125 C 22.835938 -14.3125 21.863281 -13.890625 21.125 -13.046875 C 21.144531 -12.585938 21.15625 -11.890625 21.15625 -10.953125 L 21.15625 0 L 14.4375 0 L 14.4375 -11.5625 C 14.4375 -12.550781 14.265625 -13.253906 13.921875 -13.671875 C 13.578125 -14.097656 12.960938 -14.3125 12.078125 -14.3125 C 10.722656 -14.3125 9.550781 -13.554688 8.5625 -12.046875 L 8.5625 0 L 1.796875 0 Z M 1.796875 -19.203125 "/></g></g></g></svg>